<svg width="1286" height="1033" viewBox="0 0 1286 1033" fill="none" xmlns="http://www.w3.org/2000/svg">
<path d="M9.53519 788.872C34.1332 890.439 101.387 968.736 201.106 1008.78C243.193 1025.7 289.64 1033.81 339.073 1032.86C346.277 1032.72 353.718 1032.39 361.207 1031.87C487.041 1022.91 607.519 960.489 686.479 909.682C786.009 845.651 878.24 762.662 941.654 680.432C946.394 724.13 951.086 767.923 953.693 798.635C957.153 838.968 988.813 871.671 1028.91 876.363C1035.88 877.169 1042.99 877.169 1050.05 876.221C1094.93 870.486 1128.15 828.115 1124.13 781.81C1121 745.932 1115.69 696.83 1110.52 649.34L1090.85 437.153C1087.87 400.421 1068.25 368.145 1037.06 348.524C1005.87 328.95 968.243 325.3 933.834 338.571C706.053 426.536 523.914 470.377 522.445 470.756C475.95 478.765 444.622 523.127 452.632 569.622C460.642 616.116 504.956 647.492 551.498 639.482C557.043 638.534 662.924 612.514 816.863 561.612C766.909 631.283 682.972 708.253 593.822 765.601C462.3 850.248 342.438 880.913 264.947 849.774C217.837 830.864 187.172 796.265 176.319 749.723C160.915 683.797 184.233 600.997 241.06 514.122C279.213 455.779 327.461 404.782 382.203 361.605C446.47 310.845 544.673 247.667 643.634 239.278C666.716 237.335 688.754 227.572 704.015 210.178C719.324 192.736 726.813 170.318 725.106 147.284C721.599 100.363 680.365 64.8641 633.302 68.324C478.889 79.9358 337.651 176.622 256.227 243.923C186.461 301.555 126.269 370.041 80.296 448.006C26.9292 538.578 -20.9873 662.753 9.53519 788.872Z" fill="#00DC46"/>
<path d="M1125.31 0.0276206C1038.77 1.63905 969.665 73.3478 971.276 159.891C972.888 246.435 1044.6 315.537 1131.14 313.925C1217.68 312.314 1286.79 240.605 1285.17 154.062C1283.56 67.5183 1211.85 -1.58381 1125.31 0.0276206Z" fill="#00DC46"/>
</svg>
